<?xml version="1.0" encoding="UTF-8" standalone="no"?>
<svg
   xmlns:dc="http://purl.org/dc/elements/1.1/"
   xmlns:cc="http://creativecommons.org/ns#"
   xmlns:rdf="http://www.w3.org/1999/02/22-rdf-syntax-ns#"
   xmlns:svg="http://www.w3.org/2000/svg"
   xmlns="http://www.w3.org/2000/svg"
   xmlns:sodipodi="http://sodipodi.sourceforge.net/DTD/sodipodi-0.dtd"
   xmlns:inkscape="http://www.inkscape.org/namespaces/inkscape"
   width="210mm"
   height="297mm"
   viewBox="0 0 210 297"
   version="1.1"
   id="svg8"
   inkscape:version="1.0.1 (3bc2e813f5, 2020-09-07)"
   sodipodi:docname="logo_teateapp.svg">
  <defs
     id="defs2">
    <rect
       x="22.300595"
       y="51.026786"
       width="182.94048"
       height="57.074405"
       id="rect12" />
  </defs>
  <sodipodi:namedview
     id="base"
     pagecolor="#ffffff"
     bordercolor="#666666"
     borderopacity="1.0"
     inkscape:pageopacity="0.0"
     inkscape:pageshadow="2"
     inkscape:zoom="0.98994949"
     inkscape:cx="300.89219"
     inkscape:cy="313.50783"
     inkscape:document-units="mm"
     inkscape:current-layer="layer2"
     inkscape:document-rotation="0"
     showgrid="false"
     inkscape:window-width="1920"
     inkscape:window-height="1017"
     inkscape:window-x="-8"
     inkscape:window-y="584"
     inkscape:window-maximized="1" />
  <metadata
     id="metadata5">
    <rdf:RDF>
      <cc:Work
         rdf:about="">
        <dc:format>image/svg+xml</dc:format>
        <dc:type
           rdf:resource="http://purl.org/dc/dcmitype/StillImage" />
        <dc:title></dc:title>
      </cc:Work>
    </rdf:RDF>
  </metadata>
  <g
     inkscape:label="Livello 1"
     inkscape:groupmode="layer"
     id="layer1">
    <rect
       id="rect33"
       width="211.2887"
       height="44.979172"
       x="-40.065479"
       y="384.0238"
       style="font-style:normal;font-variant:normal;font-weight:normal;font-stretch:normal;font-size:10.5833px;line-height:1.25;font-family:Futura-Black;-inkscape-font-specification:Futura-Black;white-space:pre;fill:#d40000;fill-opacity:1;stroke:none;stroke-width:0.264583" />
  </g>
  <g
     inkscape:groupmode="layer"
     id="layer2"
     inkscape:label="Livello 2">
    <g
       id="g43"
       style="font-style:normal;font-variant:normal;font-weight:normal;font-stretch:normal;font-size:10.5833px;line-height:1.25;font-family:Futura-Black;-inkscape-font-specification:Futura-Black;white-space:pre;fill:#ffffff;fill-opacity:1;stroke:none"
       transform="matrix(3.6083102,0,0,3.6083102,-113.41871,201.40801)">
      <path
         d="m 23.985428,60.608751 v -5.090113 h -1.514115 v -2.475293 h 5.746401 v 2.475293 h -1.514115 v 5.090113 z"
         style="font-style:normal;font-variant:normal;font-weight:normal;font-stretch:normal;font-family:Futura-Black;-inkscape-font-specification:Futura-Black;fill:#ffffff"
         id="path16" />
      <path
         d="m 29.09621,60.608751 v -7.565406 h 5.059107 v 2.051548 h -2.392611 v 0.728635 h 2.170403 v 1.93786 h -2.170403 v 0.795815 h 2.454623 v 2.051548 z"
         style="font-style:normal;font-variant:normal;font-weight:normal;font-stretch:normal;font-family:Futura-Black;-inkscape-font-specification:Futura-Black;fill:#ffffff"
         id="path18" />
      <path
         d="m 37.922517,57.859573 h 1.13171 l -0.232543,-0.857826 q -0.175699,-0.666624 -0.232543,-1.007687 -0.05684,-0.30489 -0.07235,-0.656289 h -0.05684 q -0.0155,0.351399 -0.07235,0.656289 -0.07235,0.418578 -0.232543,1.007687 z m -3.607003,2.749178 2.697501,-7.565406 h 3.028229 l 2.645825,7.565406 h -2.924877 l -0.242878,-0.950844 h -2.051548 l -0.232543,0.950844 z"
         style="font-style:normal;font-variant:normal;font-weight:normal;font-stretch:normal;font-family:Futura-Black;-inkscape-font-specification:Futura-Black;fill:#ffffff"
         id="path20" />
      <path
         d="m 44.082329,60.608751 v -5.090113 h -1.514115 v -2.475293 h 5.746401 v 2.475293 H 46.8005 v 5.090113 z"
         style="font-style:normal;font-variant:normal;font-weight:normal;font-stretch:normal;font-family:Futura-Black;-inkscape-font-specification:Futura-Black;fill:#ffffff"
         id="path22" />
      <path
         d="m 49.19311,60.608751 v -7.565406 h 5.059107 v 2.051548 h -2.392611 v 0.728635 h 2.170403 v 1.93786 h -2.170403 v 0.795815 h 2.454623 v 2.051548 z"
         style="font-style:normal;font-variant:normal;font-weight:normal;font-stretch:normal;font-family:Futura-Black;-inkscape-font-specification:Futura-Black;fill:#ffffff"
         id="path24" />
      <path
         d="m 58.019419,57.859573 h 1.13171 l -0.232543,-0.857826 q -0.175699,-0.666624 -0.232543,-1.007687 -0.05684,-0.30489 -0.07235,-0.656289 h -0.05684 q -0.0155,0.351399 -0.07235,0.656289 -0.07235,0.418578 -0.232543,1.007687 z m -3.607004,2.749178 2.697502,-7.565406 h 3.028229 l 2.645825,7.565406 h -2.924877 l -0.242878,-0.950844 h -2.051548 l -0.232543,0.950844 z"
         style="font-style:normal;font-variant:normal;font-weight:normal;font-stretch:normal;font-family:Futura-Black;-inkscape-font-specification:Futura-Black;fill:#ffffff"
         id="path26" />
      <path
         d="m 63.202548,60.608751 v -7.565406 h 3.250437 q 1.715652,0 2.506299,0.666624 0.795815,0.651121 0.795815,2.092889 0,1.333248 -0.707965,1.948195 -0.7183,0.625283 -2.268588,0.625283 h -0.852659 v 2.232415 z m 2.733675,-5.462182 v 1.260901 h 0.423745 q 0.397907,0 0.589109,-0.170531 0.211873,-0.155029 0.211873,-0.454752 0,-0.284219 -0.211873,-0.465086 -0.191202,-0.170532 -0.589109,-0.170532 z"
         style="font-style:normal;font-variant:normal;font-weight:normal;font-stretch:normal;font-family:Futura-Black;-inkscape-font-specification:Futura-Black;fill:#ffffff"
         id="path28" />
      <path
         d="m 70.695605,60.608751 v -7.565406 h 3.250437 q 1.715653,0 2.506299,0.666624 0.795815,0.651121 0.795815,2.092889 0,1.333248 -0.707965,1.948195 -0.7183,0.625283 -2.268588,0.625283 h -0.852658 v 2.232415 z m 2.733675,-5.462182 v 1.260901 h 0.423745 q 0.397907,0 0.58911,-0.170531 0.211872,-0.155029 0.211872,-0.454752 0,-0.284219 -0.211872,-0.465086 -0.191203,-0.170532 -0.58911,-0.170532 z"
         style="font-style:normal;font-variant:normal;font-weight:normal;font-stretch:normal;font-family:Futura-Black;-inkscape-font-specification:Futura-Black;fill:#ffffff"
         id="path30" />
    </g>
    <rect
       id="rect33-7"
       width="211.2887"
       height="42.265251"
       x="-6.8512034"
       y="459.29181"
       style="font-style:normal;font-variant:normal;font-weight:normal;font-stretch:normal;font-size:10.5833px;line-height:1.25;font-family:Futura-Black;-inkscape-font-specification:Futura-Black;white-space:pre;fill:#d40000;fill-opacity:1;stroke:none;stroke-width:0.761735;stroke-miterlimit:4;stroke-dasharray:none;stroke-opacity:1" />
    <path
       d="m 1.7034591,501.46596 v -28.41645 h -8.45281 V 459.23077 H 25.330928 v 13.81874 h -8.45281 v 28.41645 z"
       style="font-style:normal;font-variant:normal;font-weight:normal;font-stretch:normal;font-size:10.5833px;line-height:1.25;font-family:Futura-Black;-inkscape-font-specification:Futura-Black;white-space:pre;fill:#ffffff;fill-opacity:1;stroke:none;stroke-width:5.58267"
       id="path16-7" />
    <g
       id="g968"
       transform="translate(16.185594,252.79079)">
      <path
         d="M 9.1453343,247.55705 V 220.25872 H 27.400162 v 7.40262 h -8.633283 v 2.62914 h 7.831487 v 6.9924 h -7.831487 v 2.87155 h 8.857041 v 7.40262 z"
         style="font-style:normal;font-variant:normal;font-weight:normal;font-stretch:normal;font-size:10.5833px;line-height:1.25;font-family:Futura-Black;-inkscape-font-specification:Futura-Black;white-space:pre;fill:#ffffff;fill-opacity:1;stroke:none;stroke-width:3.60831"
         id="path18-2" />
      <path
         d="m 40.993388,237.63716 h 4.083561 l -0.839088,-3.0953 q -0.633976,-2.40539 -0.839087,-3.63605 -0.205096,-1.10013 -0.261061,-2.36809 h -0.205097 q -0.05593,1.26796 -0.261061,2.36809 -0.261061,1.51036 -0.839087,3.63605 z m -13.015186,9.91989 9.733421,-27.29833 h 10.926789 l 9.546957,27.29833 H 47.631506 l -0.876379,-3.43094 h -7.402622 l -0.839087,3.43094 z"
         style="font-style:normal;font-variant:normal;font-weight:normal;font-stretch:normal;font-size:10.5833px;line-height:1.25;font-family:Futura-Black;-inkscape-font-specification:Futura-Black;white-space:pre;fill:#ffffff;fill-opacity:1;stroke:none;stroke-width:3.60831"
         id="path20-8" />
      <path
         d="m 63.2199,247.55705 v -18.36671 h -5.463396 v -8.93162 h 20.734797 v 8.93162 h -5.463396 v 18.36671 z"
         style="font-style:normal;font-variant:normal;font-weight:normal;font-stretch:normal;font-size:10.5833px;line-height:1.25;font-family:Futura-Black;-inkscape-font-specification:Futura-Black;white-space:pre;fill:#ffffff;fill-opacity:1;stroke:none;stroke-width:3.60831"
         id="path22-2" />
      <path
         d="m 81.661184,247.55705 v -27.29833 h 18.254827 v 7.40262 h -8.633283 v 2.62914 h 7.831488 v 6.9924 h -7.831488 v 2.87155 h 8.857042 v 7.40262 z"
         style="font-style:normal;font-variant:normal;font-weight:normal;font-stretch:normal;font-size:10.5833px;line-height:1.25;font-family:Futura-Black;-inkscape-font-specification:Futura-Black;white-space:pre;fill:#ffffff;fill-opacity:1;stroke:none;stroke-width:3.60831"
         id="path24-0" />
      <path
         d="m 113.50924,237.63716 h 4.08357 l -0.83909,-3.0953 q -0.63398,-2.40539 -0.83909,-3.63605 -0.2051,-1.10013 -0.26106,-2.36809 h -0.2051 q -0.0559,1.26796 -0.26106,2.36809 -0.26106,1.51036 -0.83909,3.63605 z m -13.01518,9.91989 9.73342,-27.29833 h 10.92679 l 9.54696,27.29833 h -10.55387 l -0.87638,-3.43094 h -7.40262 l -0.83909,3.43094 z"
         style="font-style:normal;font-variant:normal;font-weight:normal;font-stretch:normal;font-size:10.5833px;line-height:1.25;font-family:Futura-Black;-inkscape-font-specification:Futura-Black;white-space:pre;fill:#ffffff;fill-opacity:1;stroke:none;stroke-width:3.60831"
         id="path26-1" />
      <path
         d="m 132.21158,247.55705 v -27.29833 h 11.72859 q 6.1906,0 9.0435,2.40538 2.87155,2.34945 2.87155,7.5518 0,4.81077 -2.55456,7.02969 -2.59185,2.25621 -8.18577,2.25621 h -3.07666 v 8.05525 z m 9.86395,-19.70925 v 4.54973 h 1.529 q 1.43577,0 2.12569,-0.61533 0.7645,-0.5594 0.7645,-1.64089 0,-1.02555 -0.7645,-1.67817 -0.68992,-0.61534 -2.12569,-0.61534 z"
         style="font-style:normal;font-variant:normal;font-weight:normal;font-stretch:normal;font-size:10.5833px;line-height:1.25;font-family:Futura-Black;-inkscape-font-specification:Futura-Black;white-space:pre;fill:#ffffff;fill-opacity:1;stroke:none;stroke-width:3.60831"
         id="path28-1" />
      <path
         d="m 159.24886,247.55705 v -27.29833 h 11.72858 q 6.19061,0 9.0435,2.40538 2.87155,2.34945 2.87155,7.5518 0,4.81077 -2.55456,7.02969 -2.59184,2.25621 -8.18576,2.25621 h -3.07666 v 8.05525 z m 9.86394,-19.70925 v 4.54973 h 1.52901 q 1.43577,0 2.12569,-0.61533 0.7645,-0.5594 0.7645,-1.64089 0,-1.02555 -0.7645,-1.67817 -0.68992,-0.61534 -2.12569,-0.61534 z"
         style="font-style:normal;font-variant:normal;font-weight:normal;font-stretch:normal;font-size:10.5833px;line-height:1.25;font-family:Futura-Black;-inkscape-font-specification:Futura-Black;white-space:pre;fill:#ffffff;fill-opacity:1;stroke:none;stroke-width:3.60831"
         id="path30-9" />
    </g>
    <rect
       id="rect33-7-2"
       width="211.2887"
       height="42.265251"
       x="-6.8512034"
       y="459.29181"
       style="font-style:normal;font-variant:normal;font-weight:normal;font-stretch:normal;font-size:10.5833px;line-height:1.25;font-family:Futura-Black;-inkscape-font-specification:Futura-Black;white-space:pre;fill:none;fill-opacity:1;stroke:#000000;stroke-width:0.761735;stroke-miterlimit:4;stroke-dasharray:none;stroke-opacity:1" />
    <g
       id="g989"
       style="fill:#d40000;fill-opacity:1"
       transform="matrix(0.14466212,0,0,-0.14540903,17.017622,67.270322)">
	<g
   id="g987"
   style="fill:#d40000;fill-opacity:1">
		<path
   style="fill:#d40000;fill-opacity:1"
   d="M 210.351,36.556 159.545,0 108.76,36.54 C -35.881,61.467 20.136,199.918 20.136,269.685 l 139.148,49.403 139.148,-49.403 C 298.431,199.94 355.911,61.548 210.351,36.556 Z"
   id="path985" />

	</g>

</g>
    <g
       id="g991"
       style="fill:#d40000;fill-opacity:1"
       transform="matrix(0.14466212,0,0,-0.14540903,17.017622,67.270322)">
</g>
    <g
       id="g993"
       style="fill:#d40000;fill-opacity:1"
       transform="matrix(0.14466212,0,0,-0.14540903,17.017622,67.270322)">
</g>
    <g
       id="g995"
       style="fill:#d40000;fill-opacity:1"
       transform="matrix(0.14466212,0,0,-0.14540903,17.017622,67.270322)">
</g>
    <g
       id="g997"
       style="fill:#d40000;fill-opacity:1"
       transform="matrix(0.14466212,0,0,-0.14540903,17.017622,67.270322)">
</g>
    <g
       id="g999"
       style="fill:#d40000;fill-opacity:1"
       transform="matrix(0.14466212,0,0,-0.14540903,17.017622,67.270322)">
</g>
    <g
       id="g1001"
       style="fill:#d40000;fill-opacity:1"
       transform="matrix(0.14466212,0,0,-0.14540903,17.017622,67.270322)">
</g>
    <g
       id="g1003"
       style="fill:#d40000;fill-opacity:1"
       transform="matrix(0.14466212,0,0,-0.14540903,17.017622,67.270322)">
</g>
    <g
       id="g1005"
       style="fill:#d40000;fill-opacity:1"
       transform="matrix(0.14466212,0,0,-0.14540903,17.017622,67.270322)">
</g>
    <g
       id="g1007"
       style="fill:#d40000;fill-opacity:1"
       transform="matrix(0.14466212,0,0,-0.14540903,17.017622,67.270322)">
</g>
    <g
       id="g1009"
       style="fill:#d40000;fill-opacity:1"
       transform="matrix(0.14466212,0,0,-0.14540903,17.017622,67.270322)">
</g>
    <g
       id="g1011"
       style="fill:#d40000;fill-opacity:1"
       transform="matrix(0.14466212,0,0,-0.14540903,17.017622,67.270322)">
</g>
    <g
       id="g1013"
       style="fill:#d40000;fill-opacity:1"
       transform="matrix(0.14466212,0,0,-0.14540903,17.017622,67.270322)">
</g>
    <g
       id="g1015"
       style="fill:#d40000;fill-opacity:1"
       transform="matrix(0.14466212,0,0,-0.14540903,17.017622,67.270322)">
</g>
    <g
       id="g1017"
       style="fill:#d40000;fill-opacity:1"
       transform="matrix(0.14466212,0,0,-0.14540903,17.017622,67.270322)">
</g>
    <g
       id="g1019"
       style="fill:#d40000;fill-opacity:1"
       transform="matrix(0.14466212,0,0,-0.14540903,17.017622,67.270322)">
</g>
    <path
       d="M 32.291521,70.262785 V 41.114136 H 23.620908 V 26.939333 H 56.527802 V 41.114136 H 47.85719 v 29.148649 z"
       style="font-style:normal;font-variant:normal;font-weight:normal;font-stretch:normal;font-size:10.5833px;line-height:1.25;font-family:Futura-Black;-inkscape-font-specification:Futura-Black;white-space:pre;fill:#ffffff;fill-opacity:1;stroke:none;stroke-width:5.72653"
       id="path16-7-7" />
    <g
       id="g1310"
       transform="matrix(0.70000787,0,0,0.70000787,-54.604586,-194.82414)">
      <g
         id="g1299">
        <path
           d="m 169.35085,354.94058 v -27.29833 h 18.25483 v 7.40262 h -8.63328 v 2.62914 h 7.83149 v 6.9924 h -7.83149 v 2.87155 h 8.85704 v 7.40262 z"
           style="font-style:normal;font-variant:normal;font-weight:normal;font-stretch:normal;font-size:10.5833px;line-height:1.25;font-family:Futura-Black;-inkscape-font-specification:Futura-Black;white-space:pre;fill:#d40000;fill-opacity:1;stroke:none;stroke-width:3.60831"
           id="path18-2-6" />
        <path
           d="m 201.19891,345.02069 h 4.08356 l -0.83909,-3.0953 q -0.63397,-2.40539 -0.83909,-3.63605 -0.20509,-1.10013 -0.26106,-2.36809 h -0.20509 q -0.0559,1.26796 -0.26106,2.36809 -0.26107,1.51036 -0.83909,3.63605 z m -13.01519,9.91989 9.73342,-27.29833 h 10.92679 l 9.54696,27.29833 h -10.55386 l -0.87638,-3.43094 h -7.40262 l -0.83909,3.43094 z"
           style="font-style:normal;font-variant:normal;font-weight:normal;font-stretch:normal;font-size:10.5833px;line-height:1.25;font-family:Futura-Black;-inkscape-font-specification:Futura-Black;white-space:pre;fill:#d40000;fill-opacity:1;stroke:none;stroke-width:3.60831"
           id="path20-8-4" />
        <path
           d="m 223.42542,354.94058 v -18.36671 h -5.4634 v -8.93162 h 20.7348 v 8.93162 h -5.4634 v 18.36671 z"
           style="font-style:normal;font-variant:normal;font-weight:normal;font-stretch:normal;font-size:10.5833px;line-height:1.25;font-family:Futura-Black;-inkscape-font-specification:Futura-Black;white-space:pre;fill:#d40000;fill-opacity:1;stroke:none;stroke-width:3.60831"
           id="path22-2-1" />
        <path
           d="m 241.8667,354.94058 v -27.29833 h 18.25483 v 7.40262 h -8.63328 v 2.62914 h 7.83149 v 6.9924 h -7.83149 v 2.87155 h 8.85704 v 7.40262 z"
           style="font-style:normal;font-variant:normal;font-weight:normal;font-stretch:normal;font-size:10.5833px;line-height:1.25;font-family:Futura-Black;-inkscape-font-specification:Futura-Black;white-space:pre;fill:#d40000;fill-opacity:1;stroke:none;stroke-width:3.60831"
           id="path24-0-3" />
      </g>
      <g
         id="g1293">
        <path
           d="m 273.71476,345.02069 h 4.08357 l -0.83909,-3.0953 q -0.63398,-2.40539 -0.83909,-3.63605 -0.2051,-1.10013 -0.26106,-2.36809 h -0.2051 q -0.0559,1.26796 -0.26106,2.36809 -0.26106,1.51036 -0.83909,3.63605 z m -13.01518,9.91989 9.73342,-27.29833 h 10.92679 l 9.54696,27.29833 h -10.55387 l -0.87638,-3.43094 h -7.40262 l -0.83909,3.43094 z"
           style="font-style:normal;font-variant:normal;font-weight:normal;font-stretch:normal;font-size:10.5833px;line-height:1.25;font-family:Futura-Black;-inkscape-font-specification:Futura-Black;white-space:pre;fill:#cccccc;fill-opacity:1;stroke:none;stroke-width:3.60831"
           id="path26-1-9" />
        <path
           d="m 292.4171,354.94058 v -27.29833 h 11.72859 q 6.1906,0 9.0435,2.40538 2.87155,2.34945 2.87155,7.5518 0,4.81077 -2.55456,7.02969 -2.59185,2.25621 -8.18577,2.25621 h -3.07666 v 8.05525 z m 9.86395,-19.70925 v 4.54973 h 1.529 q 1.43577,0 2.12569,-0.61533 0.7645,-0.5594 0.7645,-1.64089 0,-1.02555 -0.7645,-1.67817 -0.68992,-0.61534 -2.12569,-0.61534 z"
           style="font-style:normal;font-variant:normal;font-weight:normal;font-stretch:normal;font-size:10.5833px;line-height:1.25;font-family:Futura-Black;-inkscape-font-specification:Futura-Black;white-space:pre;fill:#cccccc;fill-opacity:1;stroke:none;stroke-width:3.60831"
           id="path28-1-0" />
        <path
           d="m 319.45438,354.94058 v -27.29833 h 11.72858 q 6.19061,0 9.0435,2.40538 2.87155,2.34945 2.87155,7.5518 0,4.81077 -2.55456,7.02969 -2.59184,2.25621 -8.18576,2.25621 h -3.07666 v 8.05525 z m 9.86394,-19.70925 v 4.54973 h 1.52901 q 1.43577,0 2.12569,-0.61533 0.7645,-0.5594 0.7645,-1.64089 0,-1.02555 -0.7645,-1.67817 -0.68992,-0.61534 -2.12569,-0.61534 z"
           style="font-style:normal;font-variant:normal;font-weight:normal;font-stretch:normal;font-size:10.5833px;line-height:1.25;font-family:Futura-Black;-inkscape-font-specification:Futura-Black;white-space:pre;fill:#cccccc;fill-opacity:1;stroke:none;stroke-width:3.60831"
           id="path30-9-3" />
      </g>
    </g>
  </g>
</svg>
